<svg viewBox="0 0 800 600" xmlns="http://www.w3.org/2000/svg">
  <rect x="0" y="0" width="800" height="600" fill="#BEE3F8" />
  <rect x="0" y="380" width="800" height="220" fill="#9AE6B4" />

  <!-- Tree -->
  <rect x="125" y="230" width="30" height="60" fill="#8B5E34" />
  <circle cx="140" cy="160" r="70" fill="#38A169" />

  <!-- Bench -->
  <rect x="60" y="460" width="140" height="15" fill="#B7791F" />
  <rect x="60" y="490" width="140" height="20" fill="#975A16" />
  <rect x="65" y="510" width="10" height="30" fill="#744210" />
  <rect x="185" y="510" width="10" height="30" fill="#744210" />

  <!-- Swings -->
  <line x1="580" y1="100" x2="740" y2="100" stroke="#4A5568" stroke-width="6" />
  <line x1="580" y1="100" x2="580" y2="260" stroke="#4A5568" stroke-width="6" />
  <line x1="740" y1="100" x2="740" y2="260" stroke="#4A5568" stroke-width="6" />
  <line x1="610" y1="100" x2="620" y2="200" stroke="#2D3748" stroke-width="3" />
  <line x1="650" y1="100" x2="640" y2="200" stroke="#2D3748" stroke-width="3" />
  <rect x="610" y="200" width="30" height="8" fill="#C53030" />
  <line x1="700" y1="100" x2="690" y2="200" stroke="#2D3748" stroke-width="3" />
  <line x1="720" y1="100" x2="710" y2="200" stroke="#2D3748" stroke-width="3" />
  <rect x="680" y="200" width="30" height="8" fill="#C53030" />

  <!-- Pond -->
  <ellipse cx="560" cy="430" rx="140" ry="80" fill="#4299E1" />
  <ellipse cx="510" cy="420" rx="14" ry="8" fill="#F6E05E" />
  <ellipse cx="560" cy="445" rx="14" ry="8" fill="#F6E05E" />
  <ellipse cx="610" cy="415" rx="14" ry="8" fill="#F6E05E" />

  <!-- Dog -->
  <ellipse cx="380" cy="545" rx="35" ry="18" fill="#D69E2E" />
  <circle cx="345" cy="535" r="15" fill="#D69E2E" />
  <line x1="360" y1="558" x2="360" y2="575" stroke="#975A16" stroke-width="6" />
  <line x1="400" y1="558" x2="400" y2="575" stroke="#975A16" stroke-width="6" />
</svg>
